:SAMPLES-PER-SECOND 30
:FULLY-SPECIFIED
:DEGREES
382
root  57.0288 38.5363 11.5447 172.146 -48.7843 177.365
RightUpLeg  -16.7705 -0.75011 -5.79621
RightLeg  31.6101 -2.24641 -1.72235
RightFoot  -7.70492 -0.188241 4.28191
RightToes  5.82063e-011 0 -3.6325e-017
Spine  11.2324 -2.74291 -8.31118
Spine1  10.2772 -5.61606 5.69424
HEad  -17.9758 6.62014 28.9792
LeftShoulder1  0.237906 2.73685 -24.7452
LeftArm  -29.7734 0.781355 -27.3427
LeftForeArm  2.34204 -36.8614 -8.26872
LeftHand  -0.0121709 6.77722 1.8986
RightShoulder  -0.290139 -4.37976 25.988
RightArm  15.0257 -11.6865 38.7017
RightForeArm  -14.0171 18.117 5.57363
RightHand  -0.823711 4.53116 -9.91545
LeftUpLeg  9.91001 5.29888 -8.01157
LeftLeg  12.7571 -8.94051 -2.216
LeftFoot  -14.7051 0.274688 6.3282
LeftToes  1.68253e-010 -3.2327e-011 -2.69673e-012
383
root  56.1426 38.459 11.1302 172.635 -53.3115 177.297
RightUpLeg  -17.3307 -1.61177 -4.74711
RightLeg  24.6624 -2.53473 -1.47107
RightFoot  -7.41897 -0.203726 4.45913
RightToes  5.82063e-011 0 -3.6325e-017
Spine  10.6979 -2.78955 -7.73819
Spine1  10.554 -5.4863 5.73837
HEad  -25.6238 -5.9345 22.759
LeftShoulder1  0.262038 2.68097 -25.6196
LeftArm  -29.8125 -0.70323 -28.2632
LeftForeArm  3.1275 -40.2576 -9.28595
LeftHand  -0.0167887 6.01616 2.40714
RightShoulder  -0.332513 -4.51269 25.8549
RightArm  10.9579 -9.05975 36.6266
RightForeArm  -10.6553 12.8823 5.6202
RightHand  -0.736606 5.21949 -8.32997
LeftUpLeg  11.4839 4.98356 -8.13748
LeftLeg  12.527 -12.8726 -2.60027
LeftFoot  -15.2806 0.345456 7.37083
LeftToes  1.68253e-010 -3.2327e-011 -2.69673e-012
384
root  55.2168 38.3571 10.6542 173.177 -57.2977 177.09
RightUpLeg  -17.14 -2.75686 -3.61619
RightLeg  16.5868 -2.40156 -1.08395
RightFoot  -7.31014 -0.256363 5.8857
RightToes  5.82063e-011 0 -3.6325e-017
Spine  9.90523 -2.72876 -7.49128
Spine1  11.2144 -5.34437 5.90489
HEad  -26.9386 -6.41123 25.2852
LeftShoulder1  0.349736 2.41437 -25.8963
LeftArm  -29.3828 -1.72095 -29.8474
LeftForeArm  4.28284 -43.2853 -10.2603
LeftHand  -0.0149272 6.0608 2.58198
RightShoulder  -0.317335 -4.46898 25.6905
RightArm  7.28338 -6.65891 34.8027
RightForeArm  -9.23506 7.77385 4.97189
RightHand  -0.638993 4.43704 -7.8303
LeftUpLeg  13.234 4.59217 -8.2087
LeftLeg  12.2885 -16.2106 -2.70537
LeftFoot  -15.9124 0.42928 8.31473
LeftToes  1.68253e-010 -3.2327e-011 -2.69673e-012
385
root  54.2027 38.1996 10.1393 173.928 -60.5322 176.828
RightUpLeg  -16.6869 -4.66689 -2.24543
RightLeg  8.49689 -0.870291 -0.119554
RightFoot  -7.52988 -0.290951 7.18827
RightToes  5.82063e-011 0 -3.6325e-017
Spine  9.07093 -2.60842 -7.04826
Spine1  11.4163 -5.07267 5.88351
HEad  -28.5284 -5.89258 27.2514
LeftShoulder1  0.398321 2.28684 -26.5527
LeftArm  -28.6951 -2.59446 -31.3976
LeftForeArm  6.3458 -45.4714 -10.9519
LeftHand  -0.0224776 5.71949 2.32776
RightShoulder  -0.262893 -4.31843 24.9745
RightArm  4.68741 -5.09091 33.6178
RightForeArm  -11.7555 3.50437 3.93755
RightHand  -0.667761 4.01427 -8.49163
LeftUpLeg  14.759 4.51133 -7.99905
LeftLeg  12.478 -19.0792 -3.08226
LeftFoot  -16.5894 0.548894 9.79366
LeftToes  1.68253e-010 -3.2327e-011 -2.69673e-012
386
root  53.0965 38.0514 9.64246 174.971 -63.9273 176.329
RightUpLeg  -15.973 -5.28337 -1.786
RightLeg  1.97583 -1.36301 1.1083
RightFoot  -7.27146 -0.364143 8.80304
RightToes  5.82063e-011 0 -3.6325e-017
Spine  7.80143 -2.71467 -6.24662
Spine1  12.0396 -4.8913 5.30734
HEad  -29.5047 -6.36843 27.1437
LeftShoulder1  0.54562 1.8205 -26.2442
LeftArm  -27.1045 -2.98648 -33.3757
LeftForeArm  7.9009 -46.8933 -11.4199
LeftHand  -0.0279534 5.31922 2.75673
RightShoulder  -0.372995 -4.66326 25.1701
RightArm  2.46007 -3.665 31.8735
RightForeArm  -13.8451 0.909104 3.02884
RightHand  -0.635928 3.81639 -8.29137
LeftUpLeg  16.2973 3.8819 -8.11934
LeftLeg  12.6309 -20.9697 -3.06547
LeftFoot  -16.865 0.637789 11.0533
LeftToes  1.68253e-010 -3.2327e-011 -2.69673e-012
387
root  51.9126 37.794 9.08891 175.828 -66.8569 175.806
RightUpLeg  -15.5721 -4.99934 -1.19881
RightLeg  -0.23037 -2.2349 1.60662
RightFoot  -6.90118 -0.47691 10.992
RightToes  5.82063e-011 0 -3.6325e-017
Spine  7.08972 -2.78172 -5.62902
Spine1  12.0664 -4.75125 4.89887
HEad  -31.096 -7.25495 26.7174
LeftShoulder1  0.640219 1.52404 -26.1637
LeftArm  -24.9084 -3.25908 -34.7864
LeftForeArm  9.42006 -47.523 -11.5749
LeftHand  -0.0298848 5.02872 2.04164
RightShoulder  -0.380764 -4.69094 25.0874
RightArm  1.11227 -3.3863 30.4139
RightForeArm  -18.2744 0.800908 2.63647
RightHand  -0.674973 3.23374 -9.32982
LeftUpLeg  17.8531 3.06207 -8.13164
LeftLeg  13.523 -21.8866 -3.29704
LeftFoot  -17.742 0.820244 12.6958
LeftToes  1.68253e-010 -3.2327e-011 -2.69673e-012
388
root  50.6656 37.551 8.51224 176.574 -69.2898 175.705
RightUpLeg  -16.263 -4.51434 -0.155144
RightLeg  2.63483 -1.97005 1.69243
RightFoot  -6.26936 -0.456782 9.29863
RightToes  5.82063e-011 0 -3.6325e-017
Spine  6.66004 -2.83193 -5.12992
Spine1  11.2208 -4.82923 5.30631
HEad  -31.8875 -6.28327 25.1053
LeftShoulder1  0.639116 1.59173 -27.2814
LeftArm  -22.2962 -3.33531 -35.2253
LeftForeArm  10.9768 -47.2 -11.3234
LeftHand  -0.0355265 4.14207 1.30975
RightShoulder  -0.392239 -4.74361 24.667
RightArm  -0.0221872 -3.21615 29.2108
RightForeArm  -18.8705 1.50047 2.21867
RightHand  -0.680679 4.61229 -8.15753
LeftUpLeg  19.0124 1.7016 -8.01499
LeftLeg  14.7597 -22.0623 -3.82825
LeftFoot  -18.3576 0.948491 13.6077
LeftToes  1.68253e-010 -3.2327e-011 -2.69673e-012
389
root  49.3747 37.4705 7.96917 175.469 -71.3291 177.438
RightUpLeg  -17.2378 -3.97115 1.487
RightLeg  7.00326 0.261694 1.37819
RightFoot  -2.18475 -0.208952 3.07472
RightToes  5.82063e-011 0 -3.6325e-017
Spine  6.10982 -3.22153 -3.00401
Spine1  11.2116 -4.90781 4.59901
HEad  -32.9404 -4.85631 23.2249
LeftShoulder1  0.66584 1.48808 -26.8953
LeftArm  -19.7594 -2.12288 -36.4126
LeftForeArm  12.106 -46.613 -10.9982
LeftHand  -0.037592 4.6961 2.13848
RightShoulder  -0.442587 -4.89512 24.9255
RightArm  -0.284025 -2.48441 28.4749
RightForeArm  -19.3945 3.35549 2.29783
RightHand  -0.672838 4.38211 -8.32372
LeftUpLeg  20.6991 -0.525867 -7.55249
LeftLeg  14.934 -21.6858 -4.1534
LeftFoot  -17.9412 0.888661 13.4629
LeftToes  1.68253e-010 -3.2327e-011 -2.69673e-012
390
root  48.0446 37.4592 7.45048 171.549 -72.8458 -178.077
RightUpLeg  -18.296 -3.23569 3.06909
RightLeg  10.7905 0.853871 0.922887
RightFoot  5.46864 0.148814 -0.967043
RightToes  5.82063e-011 0 -3.6325e-017
Spine  6.48269 -3.60415 -0.286586
Spine1  10.2909 -5.10514 4.71102
HEad  -34.1695 -4.02069 20.6532
LeftShoulder1  0.554137 1.85958 -27.5409
LeftArm  -16.1857 -0.627468 -37.0572
LeftForeArm  13.1588 -44.7095 -10.1862
LeftHand  -0.0503917 4.15806 2.95862
RightShoulder  -0.432234 -4.85209 25.1469
RightArm  0.293001 -1.715 27.8
RightForeArm  -18.3012 5.99905 2.68382
RightHand  -0.646395 2.94775 -9.26504
LeftUpLeg  22.1909 -3.74915 -6.71878
LeftLeg  15.7912 -20.3117 -4.9317
LeftFoot  -16.9456 0.718161 12.5661
LeftToes  1.68253e-010 -3.2327e-011 -2.69673e-012
391
root  46.6276 37.3883 6.94326 167.985 -72.8672 -173.8
RightUpLeg  -19.1016 -4.35803 4.66658
RightLeg  15.6391 2.26554 0.978404
RightFoot  4.91666 0.0408352 -0.0601434
RightToes  5.82063e-011 0 -3.6325e-017
Spine  6.64332 -3.54762 3.07871
Spine1  8.71591 -4.43504 3.61012
HEad  -35.4008 -2.80761 18.6777
LeftShoulder1  0.598388 1.72884 -27.5709
LeftArm  -12.8684 1.62107 -38.7247
LeftForeArm  15.0811 -40.9393 -8.73878
LeftHand  -0.0502489 3.86349 2.3969
RightShoulder  -0.440692 -4.85831 25.6352
RightArm  -0.0505262 -0.168959 28.2276
RightForeArm  -16.0264 6.96195 2.64092
RightHand  -0.72283 5.51089 -7.96951
LeftUpLeg  22.0283 -4.66477 -5.17753
LeftLeg  19.6304 -19.6852 -7.32228
LeftFoot  -15.0739 0.448176 11.0053
LeftToes  1.68253e-010 -3.2327e-011 -2.69673e-012
